inDegrees=no
num_controls=7
num_derivatives=13
num_iterations=18
num_multipliers=7
num_parameters=0
num_slacks=7
num_states=26
objective=0.475686
objective_accelerations=0.000000
objective_balance=0.001489
objective_effort=0.014222
objective_height=0.458417
objective_ligament=0.001557
solver_duration=261.229166
status=Solve_Succeeded
success=true
DataType=double
version=3
OpenSimVersion=4.5
endheader
time	/jointset/ground_pelvis/pelvis_tilt/value	/jointset/ground_pelvis/pelvis_tx/value	/jointset/ground_pelvis/pelvis_ty/value	/jointset/hip_l/hip_flexion_l/value	/jointset/hip_l/hip_adduction_l/value	/jointset/hip_l/hip_rotation_l/value	/jointset/back/lumbar_extension/value	/jointset/patellofemoral_l/patellar_flexion_l/value	/jointset/knee_l/knee_flexion_l/value	/jointset/knee_l/knee_adduction_l/value	/jointset/knee_l/knee_rotation_l/value	/jointset/ankle_l/ankle_angle_l/value	/jointset/subtalar_l/subtalar_angle_l/value	/jointset/ground_pelvis/pelvis_tilt/speed	/jointset/ground_pelvis/pelvis_tx/speed	/jointset/ground_pelvis/pelvis_ty/speed	/jointset/hip_l/hip_flexion_l/speed	/jointset/hip_l/hip_adduction_l/speed	/jointset/hip_l/hip_rotation_l/speed	/jointset/back/lumbar_extension/speed	/jointset/patellofemoral_l/patellar_flexion_l/speed	/jointset/knee_l/knee_flexion_l/speed	/jointset/knee_l/knee_adduction_l/speed	/jointset/knee_l/knee_rotation_l/speed	/jointset/ankle_l/ankle_angle_l/speed	/jointset/subtalar_l/subtalar_angle_l/speed	/forceset/tau_hip_flexion_l	/forceset/tau_hip_adduction_l	/forceset/tau_hip_rotation_l	/forceset/tau_knee_flexion_l	/forceset/tau_ankle_angle_l	/forceset/tau_subtalar_angle_l	/forceset/tau_lumbar_extension	lambda_cid13_p0	lambda_cid13_p1	lambda_cid13_p2	lambda_cid13_p3	lambda_cid13_p4	lambda_cid13_p5	lambda_cid14_p0	/jointset/ground_pelvis/pelvis_tilt/accel	/jointset/ground_pelvis/pelvis_tx/accel	/jointset/ground_pelvis/pelvis_ty/accel	/jointset/hip_l/hip_flexion_l/accel	/jointset/hip_l/hip_adduction_l/accel	/jointset/hip_l/hip_rotation_l/accel	/jointset/back/lumbar_extension/accel	/jointset/patellofemoral_l/patellar_flexion_l/accel	/jointset/knee_l/knee_flexion_l/accel	/jointset/knee_l/knee_adduction_l/accel	/jointset/knee_l/knee_rotation_l/accel	/jointset/ankle_l/ankle_angle_l/accel	/jointset/subtalar_l/subtalar_angle_l/accel	gamma_cid13_p0	gamma_cid13_p1	gamma_cid13_p2	gamma_cid13_p3	gamma_cid13_p4	gamma_cid13_p5	gamma_cid14_p0
1	-0.3300007449796753	0.08035277253841382	0.8425792193406438	0.7304770497629161	-0.3217709003919187	-0.2824880786727609	-0.1690838317416841	0.4567102992687453	0.4567102992687426	-0.01113106091250296	-0.008935111811718594	0.1340023409741336	0.1248777603325879	-0.0002620817100639724	0.01674377707479818	0.006337237486775229	-0.04233906062634469	0.007635466043651751	-0.02555692837901805	-0.008684381410474298	-0.03776728539446758	-0.03776728539446745	0.01046099338772431	-0.006573887048864331	0.004429869291960695	0.01319725616758104	-0.1567710364294841	0.1349361996157865	-0.003171424600977254	-0.06322974307019727	-0.08436415034677162	-0.0125105678790276	0.1522778992241622	-62.84647324055348	13.27474756036513	1.160122352225883	8.492206705172224	-557.3984146135078	-21.27695116225376	-36.12057736011542	0.8457906907613345	0.08473060658254557	0.2211242421345781	-1.579959985416534	0.2301086986258091	-0.2633473368157515	0.1470183861143349	-1.069085690408611	-1.069085690408611	0.1233454340389669	0.1091359022591527	-0.3450832118168797	0.0558988292067964	-5.842925939321914e-10	-2.75574365021522e-09	-1.244871420989995e-09	5.399317427916494e-10	-3.033268647537158e-09	7.823760787611599e-10	-4.954739644820439e-11
1.01	-0.3299616440282622	0.08052443089312086	0.84265356100082	0.7299754447293761	-0.3216830169534599	-0.2827565446428683	-0.1691626865438318	0.4562794260821759	0.4562794260821535	-0.01102022614867785	-0.008995173291589468	0.1340294546619921	0.1250126007835043	0.008076852643849554	0.01758931748092922	0.008530299703091016	-0.05797920458804032	0.009940460954301936	-0.02813272570687883	-0.007077970169889513	-0.04840973774991501	-0.04840973774991487	0.01170104278135789	-0.005436118010638437	0.0009926615082780595	0.01376952700776837	-0.1567364105041019	0.1350280277187463	-0.003200147457896002	-0.06298095364910844	-0.08451045343287111	-0.01254884781559612	0.1522691166897854	-62.89084436352486	13.28700523725317	1.172030778864621	8.459131664604618	-557.3523612227649	-21.24284964400425	-36.13121722085653	0.8271321849343474	0.08467933829755367	0.2182772244720973	-1.555630164086386	0.2305816931365033	-0.2541651428400895	0.1687438203875959	-1.062182886060627	-1.062182886060739	0.1235963359382749	0.1164409581535493	-0.3430707778809294	0.05769593838654061	-4.44376191552963e-10	-3.866543852528471e-09	-1.296714516087877e-09	1.952841287510524e-10	-3.792869690250516e-09	2.320476055284477e-10	1.667006372227599e-11
1.02	-0.3298393162578543	0.08070458736802179	0.8427498092857788	0.7293175205437152	-0.3215721062046857	-0.2830506624287012	-0.1692252189681011	0.4557420567964511	0.4557420567964482	-0.01089713856209657	-0.009043788370390002	0.1340221900287703	0.1251531248882212	0.01638328208691169	0.01844340111357859	0.01071856244327869	-0.07360289105135935	0.01224092809902228	-0.03068729151749881	-0.005419905834975905	-0.05906650522327745	-0.05906650522327731	0.01291155793152324	-0.004284606830444772	-0.002445794924882931	0.01433398692643491	-0.1567017845787746	0.1351198558216522	-0.003228870314661181	-0.06273216422801849	-0.08465675651897167	-0.01258712775223465	0.1522603341553816	-62.94075904822679	13.29925986035989	1.185051898851491	8.428091410974362	-557.3933407734871	-21.22246471716426	-36.14411206286204	0.8392897085910134	0.08643925188626603	0.2201643469089589	-1.576668485741256	0.2292031454398511	-0.2591010333675773	0.157349004980092	-1.071948713991641	-1.071948713991641	0.1174385853453231	0.1118843306527494	-0.3453329417124939	0.0543366449026851	-2.825723672335272e-10	-5.031022578662642e-09	-1.45635936571865e-09	-1.568470760116098e-10	-4.549851732117156e-09	-3.096590017594639e-10	9.9150203751938e-11
1.03	-0.3296340810886563	0.08089331818115472	0.8428679102290966	0.7285034594681098	-0.3214382215976743	-0.2833701972420828	-0.1692709241251206	0.4550980697545347	0.4550980697545121	-0.01076211124644972	-0.009080814618044976	0.1339805316366971	0.1252992414093975	0.02465857412664711	0.01930325359655293	0.01290021631693636	-0.08920439210387024	0.01453471953132871	-0.03321540174085261	-0.00371331495341024	-0.06973120427153034	-0.06973120427153021	0.01408836242143091	-0.003119023139249444	-0.005886393260058131	0.014887099426821	-0.156591783039994	0.1352014701715555	-0.003255050393841758	-0.06243443216903347	-0.08481538500723208	-0.01264475304858086	0.1521957557001029	-62.98973712829839	13.31865708076114	1.198185142583744	8.419729531074694	-557.321429454531	-21.18713592473353	-36.15923973449797	0.8208727158734506	0.08583195520990909	0.2169533561503676	-1.55115079772895	0.2292772561083422	-0.2490259240851108	0.1784857220601156	-1.063775703735383	-1.063775703735494	0.1169687184859168	0.119138236960101	-0.3434999539693636	0.05546705035074957	-1.205452018738851e-10	-6.196049044835804e-09	-1.61710423325282e-09	-5.090546439449053e-10	-5.306807049485359e-09	-8.512776308234488e-10	1.817962894944488e-10
1.04	-0.3293462482462085	0.08109066226085754	0.8430077852008632	0.7275335314054392	-0.3212814370535034	-0.2837148851391848	-0.1692993290548603	0.4543474266814254	0.4543474266814225	-0.01061548241833319	-0.00910613645908857	0.1339044519263661	0.1254508227551331	0.03290281673475746	0.02016605442755234	0.01507336813302993	-0.1047762884653102	0.01682091552292116	-0.03571790825484499	-0.001959860379185	-0.08039771145951641	-0.08039771145951628	0.01523186041825904	-0.001943725503769309	-0.00933005857720616	0.01542695183697967	-0.1564817815012688	0.1352830845214064	-0.003281230472862477	-0.06213670011004788	-0.08497401349549359	-0.01270237834499576	0.1521311772447965	-63.04427026225639	13.33804083659699	1.212446932120423	8.413289151525959	-557.3367741430683	-21.16573794238426	-36.17657829906732	0.8330798222659742	0.0870289214913184	0.2184639353961419	-1.570747547527103	0.2276840572970736	-0.2539802914952849	0.1667217435120043	-1.072310341938306	-1.072310341938306	0.1107772867294359	0.1138271195097478	-0.34594633810702	0.05168462685724579	6.242270582012043e-11	-7.433810049032633e-09	-1.874478662182287e-09	-8.737846235398607e-10	-6.063077284342489e-09	-1.396276171292228e-09	2.78702503110831e-10
1.05	-0.3289761204099108	0.08129663717036643	0.8431693437380219	0.7264080481371907	-0.3211018383028816	-0.2840844508081686	-0.169309989100268	0.4534901262873169	0.4534901262872941	-0.01045760748237163	-0.009119656484734538	0.1337939112787255	0.1256077170074426	0.04111798512702387	0.02102820858867525	0.01723635967945483	-0.1203133445350105	0.01909694673673224	-0.03819053812073912	-0.0001663245891546646	-0.0910610281419737	-0.09106102814197356	0.01633662514611933	-0.0007597538913565784	-0.01277947391001472	0.01594823389450821	-0.1562915287409639	0.1353519788520789	-0.003304525076622451	-0.06179154301771676	-0.08514780695812191	-0.01277942132687777	0.1520054155323194	-63.09881479282762	13.36472696370423	1.226838347757469	8.433038764598546	-557.2376281640238	-21.1302432321217	-36.19609573865427	0.8150210897626088	0.08570057920071375	0.2149184498848767	-1.544131092565989	0.2272809625636548	-0.2432016384612442	0.186543113725233	-1.063141524464958	-1.063141524465067	0.1093491598722954	0.1207609229377559	-0.344649792552746	0.05180191472605462	2.460450117120747e-10	-8.673844007542701e-09	-2.134872764905356e-09	-1.238905928499243e-09	-6.819326110371147e-09	-1.941380333992408e-09	3.760543457232716e-10
1.06	-0.3285239837412682	0.08151121200464087	0.8433524725277695	0.7251274050170753	-0.3208995355782527	-0.28447860223671	-0.169302539064379	0.4525262328877585	0.4525262328877558	-0.0102888802802858	-0.009121321046112043	0.1336488343454235	0.1257697144642392	0.04930458320154461	0.02188603938066352	0.01938741865083311	-0.1358082588397024	0.02136171031615735	-0.04063506015962937	0.001662155879990214	-0.1017163125470543	-0.1017163125470541	0.01740231363632207	0.0004273673542823605	-0.01623731571022197	0.01644759273305782	-0.1561012759807132	0.1354208731827009	-0.00332781968021925	-0.06144638592538473	-0.08532160042075095	-0.01285646430882589	0.1518796538198152	-63.15891980630938	13.39138485641969	1.242378622510402	8.454647469338655	-557.2258450912436	-21.10889878568752	-36.21776084374545	0.8273657587168287	0.08616424766441573	0.2160774203868217	-1.562319194525448	0.2254305304199082	-0.248358726094509	0.1737106793349145	-1.070703886462994	-1.070703886462994	0.1029620391979679	0.1144570461550205	-0.3476316315867346	0.04729998306150192	4.46539404519281e-10	-9.929722350499684e-09	-2.524315384494949e-09	-1.598488181746528e-09	-7.57239867724737e-09	-2.456593288737128e-09	4.909000445493818e-10
1.07	-0.3279901199264565	0.0817343283703333	0.8435570471865563	0.7236920447436975	-0.3206746478812296	-0.2848970382123543	-0.1692766601509447	0.4514558373941088	0.4514558373940857	-0.01010970957839151	-0.009111095153824925	0.1334691207429949	0.1259365759556675	0.05746339007608084	0.02273496779048093	0.0215249949423766	-0.1512540282591484	0.02361373855003579	-0.0430469244560752	0.003516842747236027	-0.1123604118885749	-0.1123604118885748	0.01842493278072962	0.001617629003031905	-0.01970841789921244	0.01691961706146859	-0.1558255659215332	0.1354747472056391	-0.00334781480528172	-0.06105642210424225	-0.08551288481585555	-0.01295288322837775	0.1516871912802258	-63.21989188296774	13.42545915613639	1.25805050612535	8.506089382981287	-557.099071609813	-21.07463296559325	-36.24153284274936	0.8094204065309042	0.08391684594103345	0.212218333218795	-1.534240095937462	0.2247772236799309	-0.2368191797058752	0.1918300814810209	-1.060906936723833	-1.06090693672394	0.1008756567309727	0.1212832089440652	-0.3473017065848185	0.04639249983709914	6.479312487581499e-10	-1.118644347986342e-08	-2.920622286896593e-09	-1.957775804583596e-09	-8.325302294168675e-09	-2.970216285611876e-09	6.066762676421766e-10
